<svg id="Capa_1" enable-background="new 0 0 450.823 450.823" height="512" viewBox="0 0 450.823 450.823" width="512" xmlns="http://www.w3.org/2000/svg"><path d="m385.116 85.355-187.88-67.091v-4.176c0-7.787-6.301-14.088-14.088-14.088s-14.088 6.301-14.088 14.088c0 0-.002 14.891 0 14.922v351.372c0 7.787 6.301 14.088 14.088 14.088s14.088-6.301 14.088-14.088v-14.088c73.949 0 112.706 20.94 112.706 28.176 0 7.237-38.756 28.176-112.706 28.176s-112.706-20.939-112.706-28.176c0-5.075 19.464-16.776 56.353-23.38v-28.71c-46.571 7.299-84.529 24.195-84.529 52.09 0 38.715 73.028 56.353 140.882 56.353s140.882-17.638 140.882-56.353-73.028-56.353-140.882-56.353v-132.173l189.448-94.724c5.049-2.531 8.103-7.815 7.76-13.455-.344-5.628-4.004-10.512-9.328-12.41zm-187.88 89.083v-126.268l147.321 52.607z"/></svg>